<?xml version="1.0" encoding="utf-8"?>
<!-- Generator: Adobe Illustrator 22.0.1, SVG Export Plug-In . SVG Version: 6.00 Build 0)  -->
<svg version="1.1" id="Layer_1" xmlns="http://www.w3.org/2000/svg" xmlns:xlink="http://www.w3.org/1999/xlink" x="0px" y="0px"
	 viewBox="0 0 84.7 85.9" style="enable-background:new 0 0 84.7 85.9;" xml:space="preserve" width="129px" height="129px">
<path d="M42.3,82.8c-22,0-39.8-17.9-39.8-39.8c0-22,17.9-39.8,39.8-39.8S82.1,21,82.1,42.9C82.1,64.9,64.3,82.8,42.3,82.8z
	 M42.3,7.1C22.5,7.1,6.5,23.2,6.5,42.9c0,19.8,16.1,35.8,35.8,35.8s35.8-16.1,35.8-35.8C78.1,23.2,62.1,7.1,42.3,7.1z"/>
<path d="M60.9,51.7c-0.5,0-1-0.2-1.4-0.6L42.3,33.9L25.1,51.1c-0.8,0.8-2,0.8-2.8,0c-0.8-0.8-0.8-2,0-2.8l18.6-18.6
	c0.8-0.8,2-0.8,2.8,0l18.6,18.6c0.8,0.8,0.8,2,0,2.8C61.9,51.5,61.4,51.7,60.9,51.7z"/>
</svg>

